<?xml version="1.0" standalone="no"?>
<!DOCTYPE svg PUBLIC "-//W3C//DTD SVG 20010904//EN"
 "http://www.w3.org/TR/2001/REC-SVG-20010904/DTD/svg10.dtd">
<svg version="1.0" xmlns="http://www.w3.org/2000/svg"
 width="165.000000pt" height="165.000000pt" viewBox="0 0 165.000000 165.000000"
 preserveAspectRatio="xMidYMid meet">
<metadata>
Created by potrace 1.14, written by Peter Selinger 2001-2017
</metadata>
<g transform="translate(0.000000,165.000000) scale(0.100000,-0.100000)"
fill="#000000" stroke="none">
<path d="M535 1533 c-215 -63 -323 -310 -223 -510 14 -29 14 -30 -34 -77 -91
-89 -129 -172 -134 -292 -3 -88 5 -130 42 -212 27 -59 130 -168 169 -178 14
-3 25 -10 25 -14 0 -7 12 -12 70 -27 8 -2 30 -6 47 -9 l33 -4 -21 57 c-12 32
-25 67 -29 78 -4 11 -8 23 -9 27 -1 4 -10 28 -21 53 -19 44 -19 45 1 102 11
32 22 63 23 68 2 6 8 21 13 35 6 14 18 47 27 74 9 27 20 54 24 60 4 6 7 13 8
16 2 10 24 73 68 195 l33 90 107 2 c84 1 109 -2 113 -13 3 -8 1 -20 -5 -27 -5
-6 -13 -28 -17 -47 -4 -19 -10 -39 -13 -44 -4 -8 -66 -179 -76 -211 -2 -5 -6
-19 -10 -30 -5 -11 -14 -36 -21 -56 -8 -20 -11 -39 -8 -43 4 -3 1 -6 -5 -6 -7
0 -11 -3 -10 -7 2 -5 -5 -29 -15 -55 -18 -46 -18 -50 -1 -100 10 -29 17 -56
16 -60 -1 -5 3 -8 8 -8 5 0 9 -3 8 -7 -5 -17 44 -143 55 -144 7 -1 168 -2 358
-3 l346 -1 0 672 0 672 -224 0 c-237 0 -239 0 -213 -47 9 -16 76 -199 85 -232
2 -8 20 -57 40 -109 24 -63 33 -100 28 -115 -4 -11 -8 -23 -8 -26 -1 -3 -7
-18 -13 -33 -7 -16 -12 -30 -12 -31 0 -2 -8 -21 -17 -42 -9 -22 -18 -43 -19
-49 -2 -9 -52 -148 -108 -298 -14 -37 -28 -72 -31 -77 -6 -9 -225 -15 -225 -7
0 5 88 256 97 277 3 8 8 23 10 33 1 10 10 31 18 47 9 17 15 32 14 35 -1 5 4
19 27 80 4 11 8 22 9 25 0 3 6 21 13 41 16 45 11 67 -58 259 -29 80 -58 164
-65 187 -28 87 -24 85 -139 82 -57 -1 -124 -9 -151 -16z"/>
</g>
</svg>
